<svg xmlns="http://www.w3.org/2000/svg" viewBox="0 0 440 190" role="img" aria-labelledby="title desc"><title id="title">T2 regulation tactic counts</title><desc id="desc">Suppression: 189; Substitution: 98; None: 76; Amplification: 29; Fabrication: 9. Bar lengths start at zero; scales are local to each chart.</desc><g font-family="Source Sans 3, Segoe UI, sans-serif" font-size="12" fill="#4A5468"><g><title>Suppression: 189</title><text x="0" y="34.5">Suppression</text><rect x="146" y="24.5" width="254" height="12" rx="2" fill="#EEF0F3"/><rect x="146" y="24.5" width="254.00" height="12" rx="2" fill="#C2415F"/><text x="432" y="34.5" text-anchor="end" fill="#17213A">189</text></g><g><title>Substitution: 98</title><text x="0" y="61.5">Substitution</text><rect x="146" y="51.5" width="254" height="12" rx="2" fill="#EEF0F3"/><rect x="146" y="51.5" width="131.70" height="12" rx="2" fill="#C2415F"/><text x="432" y="61.5" text-anchor="end" fill="#17213A">98</text></g><g><title>None: 76</title><text x="0" y="88.5">None</text><rect x="146" y="78.5" width="254" height="12" rx="2" fill="#EEF0F3"/><rect x="146" y="78.5" width="102.14" height="12" rx="2" fill="#C2415F"/><text x="432" y="88.5" text-anchor="end" fill="#17213A">76</text></g><g><title>Amplification: 29</title><text x="0" y="115.5">Amplification</text><rect x="146" y="105.5" width="254" height="12" rx="2" fill="#EEF0F3"/><rect x="146" y="105.5" width="38.97" height="12" rx="2" fill="#C2415F"/><text x="432" y="115.5" text-anchor="end" fill="#17213A">29</text></g><g><title>Fabrication: 9</title><text x="0" y="142.5">Fabrication</text><rect x="146" y="132.5" width="254" height="12" rx="2" fill="#EEF0F3"/><rect x="146" y="132.5" width="12.10" height="12" rx="2" fill="#C2415F"/><text x="432" y="142.5" text-anchor="end" fill="#17213A">9</text></g></g></svg>
