<svg xmlns="http://www.w3.org/2000/svg" viewBox="0 0 440 190" role="img" aria-labelledby="title desc"><title id="title">Video scenes, paper-reported estimates</title><desc id="desc">Home: 240; Outdoor: 128; Office: 90; Institutional: 47; School: 39; Restaurant: 38; Medical: 34; Leisure: 30. Bar lengths start at zero; scales are local to each chart.</desc><g font-family="Source Sans 3, Segoe UI, sans-serif" font-size="12" fill="#4A5468"><g><title>Home: 240</title><text x="0" y="48">Home</text><rect x="100" y="38" width="80" height="12" rx="2" fill="#EEF0F3"/><rect x="100" y="38" width="80.00" height="12" rx="2" fill="#657995"/><text x="212" y="48" text-anchor="end" fill="#17213A">240</text></g><g><title>Outdoor: 128</title><text x="0" y="75">Outdoor</text><rect x="100" y="65" width="80" height="12" rx="2" fill="#EEF0F3"/><rect x="100" y="65" width="42.67" height="12" rx="2" fill="#657995"/><text x="212" y="75" text-anchor="end" fill="#17213A">128</text></g><g><title>Office: 90</title><text x="0" y="102">Office</text><rect x="100" y="92" width="80" height="12" rx="2" fill="#EEF0F3"/><rect x="100" y="92" width="30.00" height="12" rx="2" fill="#657995"/><text x="212" y="102" text-anchor="end" fill="#17213A">90</text></g><g><title>Institutional: 47</title><text x="0" y="129">Institutional</text><rect x="100" y="119" width="80" height="12" rx="2" fill="#EEF0F3"/><rect x="100" y="119" width="15.67" height="12" rx="2" fill="#657995"/><text x="212" y="129" text-anchor="end" fill="#17213A">47</text></g><g><title>School: 39</title><text x="220" y="48">School</text><rect x="320" y="38" width="80" height="12" rx="2" fill="#EEF0F3"/><rect x="320" y="38" width="13.00" height="12" rx="2" fill="#657995"/><text x="432" y="48" text-anchor="end" fill="#17213A">39</text></g><g><title>Restaurant: 38</title><text x="220" y="75">Restaurant</text><rect x="320" y="65" width="80" height="12" rx="2" fill="#EEF0F3"/><rect x="320" y="65" width="12.67" height="12" rx="2" fill="#657995"/><text x="432" y="75" text-anchor="end" fill="#17213A">38</text></g><g><title>Medical: 34</title><text x="220" y="102">Medical</text><rect x="320" y="92" width="80" height="12" rx="2" fill="#EEF0F3"/><rect x="320" y="92" width="11.33" height="12" rx="2" fill="#657995"/><text x="432" y="102" text-anchor="end" fill="#17213A">34</text></g><g><title>Leisure: 30</title><text x="220" y="129">Leisure</text><rect x="320" y="119" width="80" height="12" rx="2" fill="#EEF0F3"/><rect x="320" y="119" width="10.00" height="12" rx="2" fill="#657995"/><text x="432" y="129" text-anchor="end" fill="#17213A">30</text></g></g></svg>
